<?xml version="1.0" encoding="UTF-8" standalone="no"?>
<!-- Created with Inkscape (http://www.inkscape.org/) -->

<svg
   width="192"
   height="191.99998"
   viewBox="0 0 50.800001 50.799997"
   version="1.1"
   id="svg1"
   inkscape:export-filename="icon-512.svg"
   inkscape:export-xdpi="96"
   inkscape:export-ydpi="96"
   xmlns:inkscape="http://www.inkscape.org/namespaces/inkscape"
   xmlns:sodipodi="http://sodipodi.sourceforge.net/DTD/sodipodi-0.dtd"
   xmlns="http://www.w3.org/2000/svg"
   xmlns:svg="http://www.w3.org/2000/svg">
  <sodipodi:namedview
     id="namedview1"
     pagecolor="#ffffff"
     bordercolor="#000000"
     borderopacity="0.25"
     inkscape:showpageshadow="2"
     inkscape:pageopacity="0.0"
     inkscape:pagecheckerboard="0"
     inkscape:deskcolor="#d1d1d1"
     inkscape:document-units="mm">
    <inkscape:page
       x="0"
       y="0"
       width="50.799999"
       height="50.799995"
       id="page2"
       margin="0"
       bleed="0" />
  </sodipodi:namedview>
  <defs
     id="defs1" />
  <g
     inkscape:label="Layer 1"
     inkscape:groupmode="layer"
     id="layer1"
     transform="translate(-60.360149,-74.684158)">
    <rect
       style="fill:#ffffff;stroke:none;stroke-width:0.478426;stroke-linecap:square;stroke-linejoin:bevel;stroke-dasharray:none;stroke-opacity:1"
       id="rect7"
       width="50.799999"
       height="50.799995"
       x="60.360149"
       y="74.684158" />
    <g
       id="g7"
       transform="matrix(0.53769489,0,0,0.53769489,28.19129,33.292902)">
      <g
         id="g6"
         transform="rotate(-17.689326,98.408152,76.198399)">
        <path
           style="font-weight:900;font-size:50.8px;line-height:1;font-family:'Roboto Slab';-inkscape-font-specification:'Roboto Slab Heavy';text-align:center;letter-spacing:0px;text-anchor:middle;stroke-width:0.465;stroke-linecap:square;stroke-linejoin:bevel"
           d="m 101.89941,155.17246 q -4.16719,0 -6.54844,-2.6293 -2.38125,-2.62929 -2.38125,-8.13593 V 133.7164 l -2.87734,-0.79375 v -5.10976 h 2.87734 8.70645 v 16.64394 q 0,1.98438 0.81855,3.02618 Q 103.33808,148.5 105,148.5 q 0.96738,0 1.90996,-0.34727 0.96738,-0.37207 1.71152,-1.0914 V 133.7164 l -2.92695,-0.79375 v -5.10976 h 2.92695 8.70644 v 20.95996 l 3.34864,0.79375 v 5.08496 H 109.7625 l -0.57051,-3.05098 q -1.28985,1.73633 -3.1502,2.65411 -1.83554,0.91777 -4.14238,0.91777 z"
           id="path5" />
        <path
           style="font-weight:900;font-size:50.8px;line-height:1;font-family:'Roboto Slab';-inkscape-font-specification:'Roboto Slab Heavy';text-align:center;letter-spacing:0px;text-anchor:middle;stroke-width:0.465;stroke-linecap:square;stroke-linejoin:bevel"
           d="m 62.95605,154.65156 v -4.7873 L 76.52421,133.6668 h -5.53144 l -0.94258,4.63847 h -6.3252 v -10.49238 h 23.11797 v 5.45703 l -12.2039,15.27969 h 5.20898 l 1.33945,-5.18418 h 5.97793 v 11.28613 z"
           id="path4" />
      </g>
      <g
         id="g5"
         transform="rotate(-17.689326,96.941428,66.772541)">
        <path
           style="font-weight:900;font-size:50.8px;line-height:1;font-family:'Roboto Slab';-inkscape-font-specification:'Roboto Slab Heavy';text-align:center;letter-spacing:0px;text-anchor:middle;stroke-width:0.465;stroke-linecap:square;stroke-linejoin:bevel"
           d="m 82.036763,120.64424 v -5.08496 l 3.12539,-0.79375 V 99.709085 L 81.44145,98.915335 V 93.80557 h 11.955859 l 0.297657,3.745508 q 1.339453,-2.00918 3.274218,-3.125391 1.959571,-1.116211 4.440036,-1.116211 3.77032,0 5.95313,2.554883 2.18281,2.554883 2.18281,8.111131 v 10.79004 l 3.12539,0.79375 v 5.08496 H 98.283833 v -5.08496 l 2.530077,-0.79375 v -10.81484 q 0,-2.15801 -0.868163,-3.05098 -0.868164,-0.917773 -2.480469,-0.917773 -1.21543,0 -2.083594,0.446483 -0.868164,0.42168 -1.513086,1.28985 v 13.04726 l 2.232422,0.79375 v 5.08496 z"
           id="path3" />
        <path
           style="font-weight:900;font-size:50.8px;line-height:1;font-family:'Roboto Slab';-inkscape-font-specification:'Roboto Slab Heavy';text-align:center;letter-spacing:0px;text-anchor:middle;stroke-width:0.465;stroke-linecap:square;stroke-linejoin:bevel"
           d="m 68.592623,88.720609 v -6.77168 h 8.954492 v 6.77168 z"
           id="path2" />
        <path
           style="font-weight:900;font-size:50.8px;line-height:1;font-family:'Roboto Slab';-inkscape-font-specification:'Roboto Slab Heavy';text-align:center;letter-spacing:0px;text-anchor:middle;stroke-width:0.465;stroke-linecap:square;stroke-linejoin:bevel"
           d="m 65.690475,120.64424 v -5.08496 l 3.150195,-0.79375 V 99.709085 l -3.745508,-0.79375 V 93.80557 h 12.451953 v 20.95996 l 3.125391,0.79375 v 5.08496 z"
           id="text1" />
      </g>
    </g>
  </g>
</svg>
